<?xml version="1.0" encoding="utf-8"?>
<!-- Generator: Adobe Illustrator 28.1.0, SVG Export Plug-In . SVG Version: 6.00 Build 0)  -->
<svg version="1.1" id="Layer_1" xmlns="http://www.w3.org/2000/svg" xmlns:xlink="http://www.w3.org/1999/xlink" x="0px" y="0px"
	 viewBox="0 0 227.7 80.8" style="enable-background:new 0 0 227.7 80.8;" xml:space="preserve">
<style type="text/css">
	.st0{fill:none;stroke:#000000;stroke-linejoin:round;stroke-miterlimit:10;}
	.st1{fill:none;}
	.st2{font-family:'Ubuntu';}
	.st3{font-size:36px;}
</style>
<g transform="translate(8.964 4.2527)">
	<path class="st0" d="M24.7,55.3L14.4,13.4l41.5,12L24.7,55.3z"/>
	<path class="st0" d="M35.1,19.4l5.2,21l-20.7-6L35.1,19.4z"/>
	<path class="st0" d="M30,37.2l-2.6-10.4l10.3,3L30,37.2z"/>
	<path class="st0" d="M24.8,16.4l2.6,10.4l-10.3-3L24.8,16.4z"/>
	<path class="st0" d="M45.5,22.3L48,32.8l-10.3-3L45.5,22.3z"/>
	<path class="st0" d="M30,37.2l2.6,10.4l-10.3-3L30,37.2z"/>
</g>
<rect x="70.9" y="23.8" class="st1" width="132.3" height="47"/>
<text transform="matrix(1 0 0 1 70.9061 51.7179)" class="st2 st3">three.js</text>
</svg>
